<svg xmlns="http://www.w3.org/2000/svg" viewBox="0 0 900 1200">
  <defs><linearGradient id="bg" x2="0" y2="1"><stop stop-color="#f4d6b0"/><stop offset=".5" stop-color="#d66a35"/><stop offset="1" stop-color="#4a1419"/></linearGradient><filter id="g"><feTurbulence baseFrequency=".7" numOctaves="3"/><feComponentTransfer><feFuncA type="table" tableValues="0 .08"/></feComponentTransfer></filter><g id="m"><path d="M0-92l18 45 33-22-8 42 49 6-38 31 23 34-49-7-5 55L0 62l-23 30-5-55-49 7 23-34-38-31 49-6-8-42 33 22z"/><path d="M0-72V75M-40-21L0 15l42-37" fill="none" stroke="#78111b" stroke-width="5"/></g></defs>
  <rect width="900" height="1200" fill="url(#bg)"/><circle cx="238" cy="252" r="142" fill="#ffdf9b" opacity=".74"/>
  <path d="M940 1100C744 805 704 492 742 126M771 565C610 462 479 314 376 115M752 709C579 681 401 592 244 443" fill="none" stroke="#3d201e" stroke-width="38" stroke-linecap="round"/>
  <g fill="#c91f23"><g transform="translate(682 314) rotate(19) scale(1.3)"><use href="#m"/></g><g transform="translate(502 274) rotate(-18) scale(.9)"><use href="#m"/></g><g transform="translate(720 552) rotate(42) scale(1.05)"><use href="#m"/></g></g>
  <g fill="#ee6a25"><g transform="translate(516 520) rotate(9) scale(1.2)"><use href="#m"/></g><g transform="translate(368 430) rotate(-32) scale(.72)"><use href="#m"/></g><g transform="translate(650 800) rotate(23) scale(.83)"><use href="#m"/></g></g>
  <g fill="#f3a52a"><g transform="translate(343 680) rotate(-8) scale(.72)"><use href="#m"/></g><g transform="translate(781 884) rotate(39) scale(.66)"><use href="#m"/></g></g>
  <path d="M0 1038c173-72 344-81 518-17 145 54 272 55 382 12v167H0z" fill="#220f17" opacity=".45"/><rect width="900" height="1200" filter="url(#g)"/>
</svg>
